<?xml version="1.0" encoding="utf-8"?>
<!-- Generator: Adobe Illustrator 24.3.0, SVG Export Plug-In . SVG Version: 6.00 Build 0)  -->
<svg version="1.1" id="Layer_1" xmlns="http://www.w3.org/2000/svg" xmlns:xlink="http://www.w3.org/1999/xlink" x="0px" y="0px"
	 viewBox="0 0 1116 324" style="enable-background:new 0 0 1116 324;" xml:space="preserve">
<style type="text/css">
	.st0{fill:#FFFFFF;}
	.st1{fill:#832D2D;}
	.st2{fill:#3C7755;}
	.st3{fill:#3B5249;}
	.st4{fill:#519872;}
	.st5{fill:#191919;}
	.st6{fill:#ffffff;}
</style>
<g>
	<g>
		<path class="st1" d="M251.1,112.6c0,6.1-0.8,11.9-2.4,17.5c-7.6,26.7-32.2,46.3-61.4,46.3c-35.2,0-63.8-28.6-63.8-63.8
			c0-26.4,16.1-49.1,38.9-58.8c7.6-3.2,16.1-5,24.9-5c7.1,0,13.8,1.1,20.2,3.3l0,0c21.7,7.2,38.3,25.8,42.5,48.8
			C250.8,104.7,251.1,108.6,251.1,112.6z"/>
		<path class="st1" d="M251.1,112.6c0,6.1-0.8,11.9-2.4,17.5l-80.8-15l-5.4-61.3c7.6-3.2,16.1-5,24.9-5c7.1,0,13.8,1.1,20.2,3.3l0,0
			c-9.5,9.5-4.2,30.1,17.2,41.6c9,4.8,18,6.7,25.3,7.1C250.8,104.7,251.1,108.6,251.1,112.6z"/>
		<path class="st2" d="M90,203.6c-18.2,0-32.9-14.7-32.9-32.9s14.7-32.9,32.9-32.9h174.6c18.2,0,32.9,14.7,32.9,32.9
			s-14.7,32.9-32.9,32.9"/>
		<path class="st3" d="M264.6,180c-2.1,0-3.7-1.7-3.7-3.7c0-11.2,5.5-15.2,8.8-16.5c5.2-2.2,11.8-0.7,16.1,3.6
			c1.5,1.5,1.5,3.8,0,5.3c-1.5,1.5-3.8,1.5-5.3,0c-2.2-2.2-5.5-3-8-2c-2.7,1.1-4.2,4.5-4.2,9.6C268.3,178.3,266.7,180,264.6,180z"/>
		<path class="st4" d="M264.6,113v82.9c0,48.3-38.9,88.1-87.3,88.1c-48.2,0-87.3-39.1-87.3-87.3v-96.2C90,67.1,117.1,40,150.5,40
			h21.9c0.5,41.4,34.2,74.8,75.7,74.8C253.8,114.8,259.3,114.2,264.6,113z"/>
		<path class="st3" d="M90,180c-2.1,0-3.7-1.7-3.7-3.7c0-5.1-1.5-8.5-4.2-9.6c-2.4-1-5.8-0.2-8,2c-1.5,1.5-3.8,1.5-5.3,0
			c-1.5-1.5-1.5-3.8,0-5.3c4.3-4.3,10.9-5.8,16.1-3.6c3.3,1.4,8.8,5.3,8.8,16.5C93.7,178.3,92,180,90,180z"/>
		<path class="st2" d="M176.6,284c-47.9-0.4-86.6-39.3-86.6-87.3v-96.2C90,67.1,117.1,40,150.5,40h11c-19.7,0-35.6,27.1-35.6,60.6
			v96.2C125.9,244.5,148.6,283.4,176.6,284z"/>
		<path class="st5" d="M224.2,146.7l-7.1,7.1l-7.1-7.1c-3.1-3.1-8.2-3.1-11.3,0c-3.1,3.1-3.1,8.2,0,11.3l7.1,7.1l-7.1,7.1
			c-3.1,3.1-3.1,8.2,0,11.3c3.1,3.1,8.2,3.1,11.3,0l7.1-7.1l7.1,7.1c3.1,3.1,8.2,3.1,11.3,0c3.1-3.1,3.1-8.2,0-11.3l-7.1-7.1
			l7.1-7.1c3.1-3.1,3.1-8.2,0-11.3C232.4,143.5,227.3,143.5,224.2,146.7z"/>
		<path class="st5" d="M144.4,146.7l-7.1,7.1l-7.1-7.1c-3.1-3.1-8.2-3.1-11.3,0c-3.1,3.1-3.1,8.2,0,11.3l7.1,7.1l-7.1,7.1
			c-3.1,3.1-3.1,8.2,0,11.3c3.1,3.1,8.2,3.1,11.3,0l7.1-7.1l7.1,7.1c3.1,3.1,8.2,3.1,11.3,0c3.1-3.1,3.1-8.2,0-11.3l-7.1-7.1
			l7.1-7.1c3.1-3.1,3.1-8.2,0-11.3C152.6,143.5,147.6,143.5,144.4,146.7z"/>
		<path class="st5" d="M193.4,205.4h-32.3c-13.9,0-25.2,11.3-25.2,25.2v8.3h82.7v-8.3C218.6,216.7,207.4,205.4,193.4,205.4z"/>
		<path class="st1" d="M201.8,265.7c-5.5,0-10-4.5-10-10v-16.9h19.9v16.9C211.7,261.2,207.3,265.7,201.8,265.7z"/>
		<path class="st1" d="M211.9,238.8h-69.2c5.6-10.9,19-18.6,34.6-18.6c3.5,0,7,0.4,10.2,1.1C198.6,223.9,207.5,230.4,211.9,238.8z"
			/>
		<path class="st1" d="M211.9,238.8h-48.8c4.4-8.5,13.3-15,24.4-17.5C198.6,223.9,207.5,230.4,211.9,238.8z"/>
	</g>
	<g>
		<g>
			<path class="st6" d="M359.5,166.8c-0.7,0.2-1.5,0.7-2.2,0.7c-1.5,0-4.1-6-5-10.3c-3.4,3.4-9.5,10.3-22.4,10.3
				c-15.8,0-25.8-10.3-25.8-26.5c0-29.1,31.3-29.1,44.9-29.1v-5.3c0-7.7-1.4-12.7-12.2-12.7c-9.6,0-19.1,5.2-21.3,5.2
				c-0.9,0-1.5-1-1.7-1.7l-3.4-10.5c-0.3-0.7-0.5-1.4-0.5-2.1c0-4,17-8.1,30.3-8.1c21.5,0,29.6,9.8,29.6,27.7v33.2
				c0,16.7,4.5,18.9,4.5,22.4c0,0.7-0.7,1.2-1.5,1.5L359.5,166.8z M349,126c-4.3,0-24.3-1.4-24.3,13.8c0,6.7,4.8,11.7,11.4,11.7
				c6.4,0,10.8-4.5,12.9-6.5V126z"/>
			<path class="st6" d="M496,162.2c0,1.9-0.3,2.4-2.4,2.4h-17c-2.1,0-2.4-0.5-2.4-2.4v-53c0-6.5-0.7-14.5-7.2-14.5
				c-7.2,0-12.9,5-15.1,7.1v60.4c0,1.9-0.3,2.4-2.4,2.4h-17c-2.1,0-2.4-0.5-2.4-2.4v-53c0-6.5-0.7-14.5-7.2-14.5
				c-7.2,0-12.9,5-15.1,7.1v60.4c0,1.9-0.3,2.4-2.4,2.4h-17c-2.1,0-2.4-0.5-2.4-2.4v-52c0-24.3-3.3-22.9-3.3-26.8
				c0-0.9,0.7-1.5,1.9-1.9l13.1-4.3c1-0.3,1.9-0.5,2.6-0.5c2.2,0,3.6,3.8,5.5,11.9c5.2-4.5,12.7-11.9,26.3-11.9
				c7.4,0,15.5,4.6,17.5,11.9c5.2-4.5,12.6-11.9,26.7-11.9c16.2,0,20,12.2,20,27.2V162.2z"/>
			<path class="st6" d="M561,166.8c-0.7,0.2-1.5,0.7-2.2,0.7c-1.5,0-4.1-6-5-10.3c-3.4,3.4-9.5,10.3-22.4,10.3
				c-15.8,0-25.8-10.3-25.8-26.5c0-29.1,31.3-29.1,44.9-29.1v-5.3c0-7.7-1.4-12.7-12.2-12.7c-9.6,0-19.1,5.2-21.3,5.2
				c-0.9,0-1.5-1-1.7-1.7l-3.4-10.5c-0.3-0.7-0.5-1.4-0.5-2.1c0-4,17-8.1,30.3-8.1c21.5,0,29.6,9.8,29.6,27.7v33.2
				c0,16.7,4.5,18.9,4.5,22.4c0,0.7-0.7,1.2-1.5,1.5L561,166.8z M550.5,126c-4.3,0-24.3-1.4-24.3,13.8c0,6.7,4.8,11.7,11.4,11.7
				c6.4,0,10.8-4.5,12.9-6.5V126z"/>
			<path class="st6" d="M640.2,162.3c-0.5,1.4-1.7,2.2-2.4,2.2h-57.3c-1,0-1.7-0.7-1.7-1.7v-12.9l39.6-52.3h-34.8
				c-0.9,0-1.2-1-1.2-2.2V82c0-1.7,0.5-2.4,2.4-2.4h54.5c1.4,0,2.9,0.7,2.9,1.7v13.4l-38.9,51.8h39.2c3.3,0,3.3,1.2,3.3,1.7
				c0,0.9-0.5,1.5-0.7,1.9L640.2,162.3z"/>
			<path class="st6" d="M685,167.5c-23.2,0-37.3-17.7-37.3-45.4c0-27.7,14.1-45.4,37.3-45.4c23.1,0,37.3,17.7,37.3,45.4
				C722.3,149.8,708.2,167.5,685,167.5z M699.1,122.1c0-16-2.2-28.2-14.1-28.2s-14.1,12.2-14.1,28.2s2.1,28.2,14.1,28.2
				C697,150.3,699.1,138.2,699.1,122.1z"/>
			<path class="st6" d="M844.8,162.2c0,1.9-0.3,2.4-2.4,2.4h-17c-2.1,0-2.4-0.5-2.4-2.4v-53c0-6.5-0.7-14.5-7.2-14.5
				c-7.2,0-12.9,5-15.1,7.1v60.4c0,1.9-0.4,2.4-2.4,2.4h-17c-2.1,0-2.4-0.5-2.4-2.4v-53c0-6.5-0.7-14.5-7.2-14.5
				c-7.2,0-12.9,5-15.1,7.1v60.4c0,1.9-0.4,2.4-2.4,2.4h-17c-2.1,0-2.4-0.5-2.4-2.4v-52c0-24.3-3.3-22.9-3.3-26.8
				c0-0.9,0.7-1.5,1.9-1.9l13.1-4.3c1-0.3,1.9-0.5,2.6-0.5c2.2,0,3.6,3.8,5.5,11.9c5.2-4.5,12.7-11.9,26.3-11.9
				c7.4,0,15.5,4.6,17.6,11.9c5.2-4.5,12.6-11.9,26.7-11.9c16.2,0,20,12.2,20,27.2V162.2z"/>
			<path class="st6" d="M883.5,84.2c3.4-2.6,9.6-7.6,19.1-7.6c23.4,0,30.1,20.7,30.1,43c0,29.2-12.6,47.8-35.6,47.8
				c-9.8,0-13.6-4.8-16.3-7.6c-0.7,1.9-2.4,7.6-5,7.6c-0.9,0-1.7-0.2-2.4-0.3l-13.8-3.4c-0.9-0.2-1.7-0.7-1.7-1.4
				c0-1.5,1.9-3.1,3.1-8.9c0.7-3.4,0.7-7.1,0.7-10.7V46.5c0-2.6,1.2-2.6,3.3-3.1l14.4-2.9c0.5,0,2.1-0.5,2.4-0.5
				c1.4,0,1.7,0.7,1.7,3.6V84.2z M883.5,146.7c1,0.9,4,3.6,8.6,3.6c15.6,0,18.7-16,18.7-29.4c0-13.8-2.4-27-15.5-27
				c-5.9,0-9.6,4-11.9,5.9V146.7z"/>
			<path class="st6" d="M973.4,162.2c0,1.9-0.3,2.4-2.4,2.4h-17c-2.1,0-2.4-0.5-2.4-2.4V95.6h-13.2c-2.1,0-2.4-0.5-2.4-2.4V82
				c0-1.9,0.3-2.4,2.4-2.4H971c2.1,0,2.4,0.5,2.4,2.4V162.2z M962.4,68.4c-7.9,0-14.3-6.4-14.3-14.3S954.5,40,962.4,40
				c7.7,0,14.1,6.2,14.1,14.1S970.1,68.4,962.4,68.4z"/>
			<path class="st6" d="M1055.6,155.4c0.4,0.5,0.5,1.2,0.5,1.9c0,4.5-17.2,10.1-30.8,10.1c-22.7,0-38.5-12.9-38.5-44.6
				c0-27.4,14.6-46.3,37.7-46.3c29.2,0,34.4,26.2,34.4,47c0,3.3-0.7,4.3-4,4.3h-46.3c0,9.6,2.7,21.5,18.9,21.5
				c12.4,0,19.4-5.7,21.9-5.7c0.9,0,1.5,0.7,1.9,1.4L1055.6,155.4z M1035.7,111.9c0-7.1-0.5-19.3-12.4-19.3
				c-13.4,0-14.1,14.5-14.6,19.3H1035.7z"/>
		</g>
		<path class="st4" d="M1002.8,236.3c-45.1-7.8-90.1-14.9-135.6-19.1c-60.8-6.9-120.3-10.2-183.2-10.2
			c-61.2-1.5-122.3,2.3-183.3,7.6c-61,5.6-121.8,14-181.9,27.1c29.1-10.1,59.2-17.1,89.2-24c30.2-6,60.7-11.3,91.3-15.3
			c61.2-7.9,123-11.6,184.8-11.4c61.7,1.5,123.6,4.5,184.6,14.1c30.6,3.9,60.8,10.3,91.1,16.3c15.1,2.9,30,7.2,44.9,11.1
			L1002.8,236.3z"/>
	</g>
</g>
</svg>
